<?xml version="1.0" encoding="UTF-8"?>
<svg width="50px" height="50px" viewBox="0 0 50 50" version="1.1" xmlns="http://www.w3.org/2000/svg" xmlns:xlink="http://www.w3.org/1999/xlink">
    <title>baseball</title>
    <g id="Page-1" stroke="none" stroke-width="1" fill="none" fill-rule="evenodd">
        <g id="Desktop-HD-Copy" transform="translate(-108.000000, -469.000000)" fill="#FFFFFF">
            <g id="baseball" transform="translate(108.000000, 469.000000)">
                <path d="M28.096875,3.125 C28.096875,2.5828125 28.0796875,2.0453125 28.0453125,1.5109375 C27.990625,0.65 27.2484375,-0.003125 26.3875,0.0515625 C25.525,0.10625 24.871875,0.85 24.928125,1.7109375 C24.9578125,2.178125 24.971875,2.65 24.971875,3.125 C24.971875,9.159375 22.521875,14.61875 18.5578125,18.5859375 C14.590625,22.55 9.13125,25 3.096875,25 C2.621875,25 2.15,24.984375 1.6828125,24.9546875 C0.821875,24.9 0.0796875,25.553125 0.0234375,26.4140625 C-0.03125,27.275 0.621875,28.01875 1.484375,28.0734375 C2.0171875,28.1078125 2.55625,28.125 3.096875,28.125 C16.8875,28.121875 28.0953125,16.915625 28.096875,3.125" id="Fill-12"></path>
                <path d="M48.4609375,21.9265625 C47.928125,21.8921875 47.3890625,21.875 46.846875,21.875 C33.0578125,21.878125 21.85,33.084375 21.846875,46.875 C21.846875,47.4171875 21.865625,47.9546875 21.8984375,48.4890625 C21.9546875,49.35 22.696875,50.003125 23.5578125,49.9484375 C24.4203125,49.89375 25.0734375,49.15 25.0171875,48.2890625 C24.9875,47.821875 24.971875,47.35 24.971875,46.875 C24.9734375,40.840625 27.4234375,35.38125 31.3875,31.4140625 C35.353125,27.45 40.8140625,25 46.846875,25 C47.3234375,25 47.79375,25.015625 48.2625,25.0453125 C49.1234375,25.1 49.865625,24.446875 49.9203125,23.5859375 C49.9765625,22.725 49.3234375,21.98125 48.4609375,21.9265625" id="Fill-13"></path>
                <path d="M9.5171875,9.5390625 C13.484375,5.575 18.940625,3.125 24.975,3.125 C31.009375,3.125 36.4671875,5.575 40.434375,9.5390625 C44.3984375,13.50625 46.846875,18.965625 46.8484375,25 C46.846875,31.034375 44.41875,36.49375 40.4546875,40.4609375 C36.4875,44.425 31.265625,46.875 25.015625,46.875 C18.765625,46.875 13.5,44.425 9.5328125,40.4609375 C5.56875,36.49375 3.109375,31.034375 3.1078125,25 C3.109375,18.965625 5.553125,13.50625 9.5171875,9.5390625 L9.5171875,9.5390625 Z M25.015625,50 C39.078125,49.996875 49.990625,38.790625 49.99375,25 C49.990625,11.209375 38.7734375,0.003125 24.9828125,0 C11.19375,0.003125 0.0015625,11.209375 8.8817842e-14,25 C0.0015625,38.790625 10.953125,49.996875 25.015625,50 L25.015625,50 Z" id="Fill-106"></path>
            </g>
        </g>
    </g>
</svg>