<?xml version="1.0" encoding="UTF-8"?>
<svg width="50px" height="50px" viewBox="0 0 50 50" version="1.1" xmlns="http://www.w3.org/2000/svg" xmlns:xlink="http://www.w3.org/1999/xlink">
    <title>basketball</title>
    <g id="Page-1" stroke="none" stroke-width="1" fill="none" fill-rule="evenodd">
        <g id="Desktop-HD-Copy" transform="translate(-489.000000, -359.000000)" fill="#FFFFFF">
            <g id="basketball" transform="translate(489.000000, 359.000000)">
                <path d="M48.2484375,25.059375 C42.590625,25.4484375 37.459375,27.7375 33.4546875,31.2734375 L27.1828125,25 L42.6421875,9.5390625 C43.253125,8.9296875 43.253125,7.940625 42.6421875,7.3296875 C42.0328125,6.7203125 41.04375,6.7203125 40.4328125,7.3296875 L24.971875,22.790625 L18.7,16.5171875 C22.2359375,12.5125 24.525,7.3828125 24.9140625,1.725 C24.971875,0.8640625 24.321875,0.1171875 23.4609375,0.059375 C22.6,2.76861867e-15 21.8546875,0.65 21.7953125,1.5109375 C21.4640625,6.3875 19.5125,10.8234375 16.4890625,14.3078125 L9.5125,7.3296875 C8.9015625,6.7203125 7.9125,6.7203125 7.303125,7.3296875 C6.6921875,7.940625 6.6921875,8.9296875 7.303125,9.5390625 L14.2796875,16.5171875 C10.7953125,19.5390625 6.359375,21.490625 1.4828125,21.8234375 C0.621875,21.8828125 -0.028125,22.628125 0.03125,23.4890625 C0.090625,24.35 0.8359375,25 1.696875,24.940625 C7.3546875,24.5515625 12.4859375,22.2625 16.490625,18.7265625 L22.7625,25 L7.303125,40.4609375 C6.6921875,41.0703125 6.6921875,42.059375 7.303125,42.6703125 C7.9125,43.2796875 8.9015625,43.2796875 9.5125,42.6703125 L24.971875,27.209375 L31.2453125,33.4828125 C27.709375,37.4875 25.4203125,42.6171875 25.03125,48.275 C24.971875,49.1359375 25.621875,49.8828125 26.4828125,49.940625 C27.34375,50 28.090625,49.35 28.1484375,48.4890625 C28.48125,43.6140625 30.4328125,39.1765625 33.45625,35.6921875 L40.4328125,42.6703125 C41.04375,43.2796875 42.0328125,43.2796875 42.6421875,42.6703125 C43.253125,42.059375 43.253125,41.0703125 42.6421875,40.4609375 L35.665625,33.4828125 C39.15,30.4609375 43.5859375,28.509375 48.4609375,28.1765625 C49.321875,28.1171875 49.971875,27.371875 49.9140625,26.5109375 C49.8546875,25.65 49.109375,25 48.2484375,25.059375" id="Fill-11"></path>
                <path d="M40.4546875,40.4609375 C36.4875,44.425 31.265625,46.875 25.015625,46.875 C18.765625,46.875 13.5,44.425 9.5328125,40.4609375 C5.56875,36.49375 3.109375,31.034375 3.1078125,25 C3.109375,18.965625 5.553125,13.50625 9.5171875,9.5390625 C13.484375,5.575 18.940625,3.125 24.975,3.125 C31.009375,3.125 36.4671875,5.575 40.434375,9.5390625 C44.3984375,13.50625 46.846875,18.965625 46.8484375,25 C46.846875,31.034375 44.41875,36.49375 40.4546875,40.4609375 L40.4546875,40.4609375 Z M24.9828125,0 C11.19375,0.003125 0.003125,11.209375 8.8817842e-14,25 C0.003125,38.790625 10.953125,49.996875 25.015625,50 C39.078125,49.996875 49.990625,38.790625 49.99375,25 C49.990625,11.209375 38.7734375,0.003125 24.9828125,0 L24.9828125,0 Z" id="Fill-105"></path>
            </g>
        </g>
    </g>
</svg>