<?xml version="1.0" encoding="UTF-8"?>
<svg width="34px" height="34px" viewBox="0 0 34 34" version="1.1" xmlns="http://www.w3.org/2000/svg" xmlns:xlink="http://www.w3.org/1999/xlink">
    <title>Style 2</title>
    <g id="Page-1" stroke="none" stroke-width="1" fill="none" fill-rule="evenodd">
        <g id="Desktop-HD" transform="translate(-1337.000000, -46.000000)" fill="#FFFFFF">
            <g id="Style-2" transform="translate(1337.000000, 46.000000)">
                <path d="M9.71428574,26.7142858 C11.7261802,26.7142858 13.3571429,28.3452485 13.3571429,30.357143 C13.3571429,32.3690374 11.7261802,34.0000001 9.71428574,34.0000001 C7.70239129,34.0000001 6.07142859,32.3690374 6.07142859,30.357143 C6.07142859,28.3452485 7.70239129,26.7142858 9.71428574,26.7142858 Z M24.2857144,26.7142858 C26.2976088,26.7142858 27.9285715,28.3452485 27.9285715,30.357143 C27.9285715,31.8305411 27.0410179,33.158859 25.6797754,33.7227041 C24.318533,34.2865492 22.7516752,33.9748818 21.7098254,32.9330319 C20.6679755,31.8911821 20.3563081,30.3243243 20.9201532,28.9630819 C21.4839983,27.6018394 22.8123162,26.7142858 24.2857144,26.7142858 Z M9.71428574,29.1428572 C9.04365426,29.1428572 8.50000003,29.6865115 8.50000003,30.357143 C8.50000003,31.0277744 9.04365426,31.5714287 9.71428574,31.5714287 C10.3849172,31.5714287 10.9285715,31.0277744 10.9285715,30.357143 C10.9285715,29.6865115 10.3849172,29.1428572 9.71428574,29.1428572 Z M24.2857144,29.1428572 C23.6150829,29.1428572 23.0714286,29.6865115 23.0714286,30.357143 C23.0714286,31.0277744 23.6150829,31.5714287 24.2857144,31.5714287 C24.9563458,31.5714287 25.5000001,31.0277744 25.5000001,30.357143 C25.5000001,29.6865115 24.9563458,29.1428572 24.2857144,29.1428572 Z M1.74857143,-3.80647894e-15 C3.41912173,-3.80647894e-15 4.8756423,1.13609047 5.28214287,2.75642858 L5.28214287,2.75642858 L5.80428573,4.85714287 L33.0650001,4.85714287 L30.6364287,14.6442858 C30.3033289,15.9680358 29.2581332,16.9944836 27.9285715,17.3035715 L27.9285715,17.3035715 L9.94500003,21.5414286 L10.0907143,22.1485715 C10.2277046,22.7037226 10.7334392,23.0880809 11.305,23.0714286 L11.305,23.0714286 L27.9285715,23.0714286 L27.9285715,25.5001859 L11.305,25.5001859 C9.62088996,25.5169172 8.14473585,24.3771655 7.73500002,22.7435715 L7.73500002,22.7435715 L7.28571431,20.9342858 L2.96285715,3.35142858 C2.82586687,2.79627745 2.32013229,2.41191918 1.74857143,2.42857144 L1.74857143,2.42857144 L-2.58840568e-14,2.42857144 L-2.58840568e-14,-3.80647894e-15 Z M30.017143,7.28571431 L6.41142859,7.28571431 L9.3864286,19.1857143 L27.4185715,14.9478572 C27.8648773,14.8475115 28.2169166,14.5048599 28.3292858,14.0614286 L28.3292858,14.0614286 L30.017143,7.28571431 Z" id="Style"></path>
            </g>
        </g>
    </g>
</svg>