<?xml version="1.0" encoding="UTF-8"?>
<svg width="32px" height="30px" viewBox="0 0 32 30" version="1.1" xmlns="http://www.w3.org/2000/svg" xmlns:xlink="http://www.w3.org/1999/xlink">
    <title>home</title>
    <g id="Page-1" stroke="none" stroke-width="1" fill="none" fill-rule="evenodd">
        <g id="Desktop-HD-Copy" transform="translate(-58.000000, -131.000000)" fill="#FFFFFF">
            <g id="Group-3" transform="translate(56.000000, 131.000000)">
                <g id="home" transform="translate(2.000000, 0.000000)">
                    <path d="M18.0321429,0.906130281 C16.7588427,-0.302043427 14.762586,-0.302043427 13.4892858,0.906130281 L0.761016459,13.6242898 C0.340885625,14.0440869 0.340615106,14.724983 0.760412238,15.1451139 C0.760512901,15.1452146 0.760613585,15.1453153 0.760714288,15.145416 C1.18084519,15.5655469 1.86201196,15.5655469 2.28214286,15.145416 L3.97500001,13.4525589 L3.97500001,13.4525589 L3.97500001,26.7489875 C3.97500001,28.5241885 5.41408475,29.9632732 7.18928574,29.9632732 L24.3321429,29.9632732 C26.1073439,29.9632732 27.5464287,28.5241885 27.5464287,26.7489875 L27.5464287,13.4525589 L29.2392857,15.145416 C29.6594166,15.5655469 30.3405834,15.5655469 30.7607143,15.145416 C31.1806784,14.725452 31.1806784,14.0445558 30.7607144,13.6245918 C30.7606137,13.6244911 30.7605129,13.6243904 30.7604122,13.6242897 L18.0321429,0.906130281 L18.0321429,0.906130281 Z M25.4035715,26.7489875 C25.4035715,27.3407212 24.9238766,27.8204161 24.3321429,27.8204161 L7.18928574,27.8204161 C6.59755207,27.8204161 6.11785716,27.3407212 6.11785716,26.7489875 L6.11785716,11.3097017 L15,2.41684457 C15.2011785,2.21400959 15.4750313,2.09991779 15.7607143,2.09991779 C16.0463974,2.09991779 16.3202501,2.21400959 16.5214286,2.41684457 L25.4035715,11.3097017 L25.4035715,26.7489875 Z" id="Style"></path>
                </g>
            </g>
        </g>
    </g>
</svg>