<?xml version="1.0" encoding="UTF-8"?>
<svg width="52px" height="52px" viewBox="0 0 52 52" version="1.1" xmlns="http://www.w3.org/2000/svg" xmlns:xlink="http://www.w3.org/1999/xlink">
    <title>rugby</title>
    <g id="Page-1" stroke="none" stroke-width="1" fill="none" fill-rule="evenodd">
        <g id="Desktop-HD-Copy" transform="translate(-488.000000, -468.000000)" fill="#FFFFFF">
            <g id="rugby" transform="translate(489.000000, 469.000000)">
                <path d="M23.490625,48.490625 C24.1,47.8796875 24.1,46.890625 23.490625,46.2796875 L3.3859375,26.1765625 C2.7765625,25.565625 1.7875,25.565625 1.1765625,26.1765625 C0.565625,26.7859375 0.565625,27.775 1.1765625,28.3859375 L21.28125,48.490625 C21.890625,49.1 22.8796875,49.1 23.490625,48.490625" id="Fill-19"></path>
                <path d="M48.490625,21.2796875 L28.3859375,1.1765625 C27.7765625,0.565625 26.7875,0.565625 26.1765625,1.1765625 C25.565625,1.7859375 25.565625,2.775 26.1765625,3.3859375 L46.28125,23.490625 C46.890625,24.1 47.8796875,24.1 48.490625,23.490625 C49.1,22.8796875 49.1,21.890625 48.490625,21.2796875" id="Fill-20"></path>
                <path d="M33.7515625,15.915625 C33.140625,15.3046875 32.1515625,15.3046875 31.540625,15.915625 L31.0828125,16.3734375 L27.5015625,12.790625 C26.890625,12.1796875 25.9015625,12.1796875 25.290625,12.790625 C24.68125,13.4015625 24.68125,14.390625 25.290625,15 L28.8734375,18.5828125 L24.8328125,22.6234375 L21.2515625,19.040625 C20.640625,18.4296875 19.6515625,18.4296875 19.040625,19.040625 C18.43125,19.6515625 18.43125,20.640625 19.040625,21.25 L22.6234375,24.8328125 L18.5828125,28.8734375 L15.0015625,25.290625 C14.390625,24.6796875 13.4015625,24.6796875 12.790625,25.290625 C12.18125,25.9015625 12.18125,26.890625 12.790625,27.5 L16.3734375,31.0828125 L15.915625,31.540625 C15.30625,32.1515625 15.30625,33.140625 15.915625,33.75 C16.5265625,34.3609375 17.515625,34.3609375 18.1265625,33.75 L18.5828125,33.2921875 L22.165625,36.875 C22.7765625,37.4859375 23.765625,37.4859375 24.3765625,36.875 C24.9859375,36.265625 24.9859375,35.2765625 24.3765625,34.665625 L20.79375,31.0828125 L24.8328125,27.0421875 L28.415625,30.625 C29.0265625,31.2359375 30.015625,31.2359375 30.6265625,30.625 C31.2359375,30.015625 31.2359375,29.0265625 30.6265625,28.415625 L27.04375,24.8328125 L31.0828125,20.7921875 L34.665625,24.375 C35.2765625,24.9859375 36.265625,24.9859375 36.8765625,24.375 C37.4859375,23.765625 37.4859375,22.7765625 36.8765625,22.165625 L33.29375,18.5828125 L33.7515625,18.125 C34.3609375,17.515625 34.3609375,16.5265625 33.7515625,15.915625" id="Fill-21"></path>
                <path d="M11.71875,11.71875 C18.0578125,5.3484375 27.50625,3.1140625 34.8140625,3.125 C37.3140625,3.125 39.5546875,3.384375 41.278125,3.7953125 C42.9984375,4.184375 44.2109375,4.815625 44.5109375,5.15625 C44.8515625,5.45625 45.48125,6.66875 45.871875,8.3890625 C46.28125,10.1125 46.5421875,12.3515625 46.540625,14.8515625 C46.5515625,22.1609375 44.3171875,31.6078125 37.9484375,37.946875 C31.609375,44.3171875 22.1609375,46.5515625 14.853125,46.540625 C12.353125,46.5421875 10.1125,46.28125 8.3890625,45.8703125 C6.66875,45.48125 5.45625,44.85 5.15625,44.5109375 L4.0515625,45.615625 L5.15625,44.5109375 C4.815625,44.209375 4.184375,42.996875 3.7953125,41.278125 C3.384375,39.553125 3.125,37.3140625 3.125,34.8140625 C3.115625,27.5046875 5.35,18.0578125 11.71875,11.71875 L11.71875,11.71875 Z M7.665625,48.9109375 C9.684375,49.3890625 12.1359375,49.6640625 14.853125,49.665625 C22.7421875,49.6546875 32.9390625,47.3453125 40.1578125,40.1578125 C47.346875,32.9390625 49.65625,22.740625 49.665625,14.8515625 C49.665625,12.1359375 49.390625,9.684375 48.9109375,7.665625 C48.4109375,5.64375 47.7984375,4.0625 46.7203125,2.9453125 C45.603125,1.8671875 44.0234375,1.2546875 42,0.7546875 C39.98125,0.2765625 37.5296875,0.0015625 34.8140625,0 C26.925,0.0109375 16.728125,2.3203125 9.509375,9.5078125 C2.3203125,16.7265625 0.0109375,26.925 9.15933995e-14,34.8140625 C0.0015625,37.5296875 0.2765625,39.98125 0.7546875,42 C1.25625,44.021875 1.86875,45.603125 2.946875,46.7203125 C4.0640625,47.7984375 5.64375,48.4109375 7.665625,48.9109375 L7.665625,48.9109375 Z" id="Fill-110" stroke="#979797"></path>
            </g>
        </g>
    </g>
</svg>