<?xml version="1.0" encoding="UTF-8"?>
<svg width="50px" height="50px" viewBox="0 0 50 50" version="1.1" xmlns="http://www.w3.org/2000/svg" xmlns:xlink="http://www.w3.org/1999/xlink">
    <title>soccer</title>
    <g id="Page-1" stroke="none" stroke-width="1" fill="none" fill-rule="evenodd">
        <g id="Desktop-HD-Copy" transform="translate(-299.000000, -359.000000)" fill="#FFFFFF">
            <g id="soccer" transform="translate(299.000000, 359.000000)">
                <path d="M26.91875,31.9203125 L20.009375,30.053125 L18.090625,23.071875 L23.0765625,18.0859375 L30.021875,19.9796875 L31.915625,26.9234375 L26.91875,31.9203125 L26.91875,31.9203125 Z M47.6484375,22.2375 L47.6484375,22.2375 L42.0109375,27.8765625 L34.8890625,25.9515625 L33.040625,19.1703125 L38.16875,14.040625 L45.975,16.1703125 L46.796875,13.1546875 L38.9765625,11.021875 L36.909375,3.4453125 L33.8953125,4.2671875 L35.959375,11.8328125 L30.83125,16.9609375 L23.884375,15.065625 L22.05625,8.3640625 L27.8265625,2.59375 L25.6171875,0.384375 L19.846875,6.1546875 L12.040625,4.025 L11.21875,7.040625 L19.0375,9.171875 L20.865625,15.8765625 L15.6953125,21.0484375 L9.0265625,19.246875 L6.865625,11.3890625 L3.8515625,12.2171875 L5.928125,19.765625 L0.1453125,25.55 L2.3546875,27.759375 L7.928125,22.1859375 L15.1421875,24.1359375 L16.953125,30.721875 L11.7359375,35.9390625 L4.0546875,33.8640625 L3.240625,36.88125 L11.03125,38.9859375 L13.165625,46.74375 L16.178125,45.915625 L14.021875,38.0734375 L19.0609375,33.0328125 L25.928125,34.8890625 L27.846875,41.925 L22.2109375,47.5609375 L24.4203125,49.7703125 L30.175,44.015625 L38,46.1296875 L38.815625,43.1140625 L30.8203125,40.953125 L28.9953125,34.2625 L34.24375,29.0140625 L41.0203125,30.8453125 L43.178125,38.75625 L46.1921875,37.9328125 L44.0890625,30.21875 L49.859375,24.4484375 L47.6484375,22.2375 L47.6484375,22.2375 Z" id="Fill-23"></path>
                <path d="M3.125,24.9984375 C3.125,23.1125 3.36875,21.2109375 3.8703125,19.3390625 C5.89375,11.7890625 11.7890625,5.89375 19.3390625,3.8703125 C21.209375,3.36875 23.1125,3.125 24.9984375,3.125 C30.725,3.125 36.3125,5.375 40.46875,9.5328125 C44.625,13.6890625 46.875,19.275 46.875,25.0015625 C46.875,26.8890625 46.63125,28.790625 46.1296875,30.6625 C44.1078125,38.2109375 38.2109375,44.1078125 30.6609375,46.1296875 C28.790625,46.63125 26.8890625,46.875 25.0015625,46.875 C19.275,46.875 13.6890625,44.625 9.5328125,40.46875 C5.375,36.3125 3.125,30.725 3.125,24.9984375 L3.125,24.9984375 Z M31.4703125,49.1484375 C40.0984375,46.8359375 46.8359375,40.0984375 49.1484375,31.4703125 C49.7203125,29.3328125 50,27.1578125 50,25.0015625 C50.0015625,18.4578125 47.428125,12.0734375 42.678125,7.321875 C37.928125,2.571875 31.5421875,5.55111512e-15 24.9984375,5.55111512e-15 C22.8421875,5.55111512e-15 20.6671875,0.2796875 18.5296875,0.8515625 C9.9015625,3.1640625 3.1640625,9.903125 0.8515625,18.5296875 C0.2796875,20.6671875 9.43689571e-14,22.8421875 9.43689571e-14,24.9984375 C9.43689571e-14,31.5421875 2.571875,37.928125 7.321875,42.678125 C12.071875,47.428125 18.4578125,50.0015625 25.0015625,50 C27.1578125,50 29.3328125,49.721875 31.4703125,49.1484375 L31.4703125,49.1484375 Z" id="Fill-112"></path>
            </g>
        </g>
    </g>
</svg>