<?xml version="1.0" encoding="UTF-8"?>
<svg width="50px" height="50px" viewBox="0 0 50 50" version="1.1" xmlns="http://www.w3.org/2000/svg" xmlns:xlink="http://www.w3.org/1999/xlink">
    <title>tt</title>
    <g id="Page-1" stroke="none" stroke-width="1" fill="none" fill-rule="evenodd">
        <g id="Desktop-HD-Copy" transform="translate(-299.000000, -469.000000)" fill="#FFFFFF">
            <g id="tt" transform="translate(299.000000, 469.000000)">
                <path d="M24.6954574,41.9015152 C25.2863665,42.4924242 26.2469726,42.4924242 26.8378817,41.9015152 C27.4303059,41.3090909 27.4303059,40.35 26.8378817,39.7590909 L8.96060894,21.880303 C8.3681847,21.2893939 7.40909379,21.2893939 6.8181847,21.880303 C6.22576046,22.4727273 6.22576046,23.4318182 6.8181847,24.0242424 L24.6954574,41.9015152" id="Fill-54"></path>
                <path d="M25.9181847,9.16363636 C28.421215,9.16818182 30.4590938,11.2060606 30.4636392,13.7090909 C30.4590938,16.2121212 28.421215,18.25 25.9181847,18.2545455 C23.4151544,18.25 21.3772756,16.2121212 21.3727302,13.7090909 C21.3772756,11.2060606 23.4151544,9.16818182 25.9181847,9.16363636 L25.9181847,9.16363636 Z M25.9181847,21.2848485 C30.101518,21.2818182 33.4924271,17.8909091 33.4939423,13.7090909 C33.4924271,9.52727273 30.101518,6.13636364 25.9181847,6.13333333 C21.7363665,6.13636364 18.3454574,9.52727273 18.3424271,13.7090909 C18.3454574,17.8909091 21.7363665,21.2818182 25.9181847,21.2848485 L25.9181847,21.2848485 Z" id="Fill-55"></path>
                <path d="M3.9181847,40.5151515 L8.81060894,35.6227273 C10.2560635,34.1818182 10.9560635,32.2606061 10.951518,30.3515152 C10.951518,29.3848485 10.7772756,28.4136364 10.4378817,27.4848485 C9.69697258,25.4621212 9.32727561,23.3333333 9.32727561,21.2045455 C9.33333622,15.5575758 11.9121241,9.9469697 17.1424271,6.26818182 C20.1984877,4.11818182 23.8500029,3.03030303 27.5060635,3.03030303 C31.0121241,3.03030303 34.5106089,4.03181818 37.4863665,6.02878788 C43.0318211,9.75606061 45.6484877,15.6287879 45.6575786,21.5393939 C45.6575786,26.0712121 43.8272756,30.6030303 40.3439423,34.0878788 C36.8030332,37.6272727 32.1666696,39.3893939 27.5136392,39.3909091 C25.3318211,39.3909091 23.151518,39.0030303 21.0848514,38.2257576 C20.1803059,37.8863636 19.2333362,37.7121212 18.2893968,37.7121212 C16.4590938,37.7075758 14.6181847,38.3818182 13.2363665,39.7681818 L8.20303319,44.8015152 C7.60757864,45.3954545 6.84091198,45.6878788 6.06060894,45.6893939 C5.28030591,45.6878788 4.51363925,45.3954545 3.9181847,44.8015152 C3.32273016,44.2060606 3.03182107,43.4393939 3.03030591,42.6590909 C3.03182107,41.8787879 3.32273016,41.1121212 3.9181847,40.5151515 L3.9181847,40.5151515 Z M6.06060894,48.719697 C7.60606349,48.7212121 9.16666955,48.1242424 10.3454574,46.9439394 L15.3787908,41.9106061 C16.1621241,41.130303 17.1787908,40.7454545 18.2893968,40.7424242 C18.8590938,40.7424242 19.4469726,40.8484848 20.0181847,41.0621212 C22.4303059,41.9681818 24.9727302,42.4212121 27.5136392,42.4212121 C32.9287908,42.4242424 38.3590938,40.3590909 42.4863665,36.230303 L41.4151544,35.1590909 L42.4863665,36.230303 C46.5272756,32.1909091 48.6878817,26.8878788 48.6878817,21.5393939 C48.6969726,14.7439394 45.6166696,7.83181818 39.1757605,3.51363636 C35.6742453,1.16363636 31.5863665,-5.38289951e-15 27.5060635,-5.38289951e-15 C23.2530332,-5.38289951e-15 18.9939423,1.26363636 15.3984877,3.78939394 C9.34091198,8.04242424 6.29091198,14.6378788 6.29697258,21.2045455 C6.29697258,23.6848485 6.72879076,26.1651515 7.59091198,28.5242424 C7.8121241,29.1287879 7.92121501,29.75 7.92121501,30.3515152 C7.91666955,31.5454545 7.50606349,32.6393939 6.66666955,33.480303 L1.77424531,38.3727273 C0.593942278,39.5530303 -0.00151226732,41.1121212 2.88419648e-06,42.6590909 C-0.00151226732,44.2045455 0.593942278,45.7651515 1.77424531,46.9439394 C2.95454834,48.1242424 4.51363925,48.7212121 6.06060894,48.719697 L6.06060894,48.719697 Z" id="Fill-124"></path>
            </g>
        </g>
    </g>
</svg>