<?xml version="1.0" encoding="UTF-8"?>
<svg width="50px" height="50px" viewBox="0 0 50 50" version="1.1" xmlns="http://www.w3.org/2000/svg" xmlns:xlink="http://www.w3.org/1999/xlink">
    <title>volley</title>
    <g id="Page-1" stroke="none" stroke-width="1" fill="none" fill-rule="evenodd">
        <g id="Desktop-HD-Copy" transform="translate(-108.000000, -359.000000)" fill="#FFFFFF">
            <g id="volley" transform="translate(108.000000, 359.000000)">
                <path d="M31.2453129,9.37031419 C26.5984379,9.37031419 22.3218754,10.9531267 18.8968754,13.5828142 C18.8734379,13.2734392 18.8343754,12.9656267 18.8343754,12.6546892 C18.8375004,8.99375169 20.3015629,5.38125169 23.3218754,2.91875169 C23.9906254,2.37500169 24.0906254,1.39062669 23.5468754,0.721876693 C23.0015629,0.0515641934 22.0171879,-0.0484358066 21.3484379,0.496876693 C17.5265629,3.60937669 15.7046879,8.17187669 15.7093754,12.6546892 C15.6984379,17.8250017 18.3890629,22.9765642 23.4593754,25.8968767 C23.4546879,28.9125017 22.4140629,31.5328142 20.7343754,33.6015642 C16.7875004,32.3484392 13.2812504,29.7015642 11.0453129,25.8328142 C9.48125041,23.1218767 8.74062541,20.1734392 8.74062541,17.2562517 C8.73906291,13.7718767 9.80156291,10.3390642 11.7906254,7.45937669 C12.2812504,6.75000169 12.1031254,5.77656419 11.3937504,5.28593919 C10.6828129,4.79531419 9.70937541,4.97343919 9.21875041,5.68437669 C6.86718791,9.09218919 5.61562541,13.1390642 5.61562541,17.2562517 C5.61406291,20.7015642 6.49531291,24.2015642 8.33906291,27.3953142 C10.6640629,31.4218767 14.1765629,34.3343767 18.1671879,35.9843767 C16.0843754,37.4375017 13.5796879,38.2765642 11.0062504,38.2750017 C9.57968791,38.2734392 8.13281291,38.0234392 6.71406291,37.4828142 C5.90781291,37.1765642 5.00625041,37.5812517 4.69843791,38.3875017 C4.39218791,39.1953142 4.79687541,40.0968767 5.60312541,40.4046892 C7.38281291,41.0812517 9.21250041,41.4000017 11.0062504,41.4000017 C15.0703129,41.3968767 18.9468754,39.7796892 21.8265629,37.0359392 C22.0343754,36.8375017 22.2234379,36.6218767 22.4203129,36.4109392 C22.4500004,36.3796892 22.4828129,36.3546892 22.5078129,36.3203142 C24.9921879,33.6328142 26.5859379,30.0140642 26.5843754,25.8921892 C28.5609379,24.7609392 30.6265629,24.2187517 32.6593754,24.2171892 C33.2984379,24.2171892 33.9328129,24.2765642 34.5593754,24.3750017 C34.8281254,25.5921892 35.0015629,26.8296892 35.0015629,28.0812517 C35.0015629,30.9984392 34.2609379,33.9468767 32.6968754,36.6578142 C29.5125004,42.1734392 23.7375004,45.2531267 17.7937504,45.2546892 C17.3343754,45.2546892 16.8734379,45.2359392 16.4125004,45.1984392 C15.5515629,45.1296892 14.7984379,45.7703142 14.7281254,46.6312517 C14.6593754,47.4906267 15.3000004,48.2437517 16.1609379,48.3140642 C16.7046879,48.3578142 17.2500004,48.3796892 17.7937504,48.3796892 C24.8093754,48.3828142 31.6406254,44.7343767 35.4031254,38.2203142 C37.2468754,35.0265642 38.1281254,31.5281267 38.1265629,28.0812517 C38.1265629,27.1859392 38.0656254,26.2953142 37.9484379,25.4125017 C41.5093754,27.0875017 44.2859379,30.4015642 44.9515629,34.5843767 C45.0890629,35.4359392 45.8906254,36.0140642 46.7437504,35.8765642 C47.5953129,35.7390642 48.1734379,34.9375017 48.0359379,34.0859392 C46.9796879,27.6187517 42.0359379,22.8781267 36.1453129,21.5093767 C36.1125004,21.5031267 36.0828129,21.4906267 36.0484379,21.4875017 C34.9437504,21.2375017 33.8093754,21.0921892 32.6593754,21.0921892 C30.0875004,21.0906267 27.4437504,21.7562517 24.9828129,23.1765642 C22.3859379,21.6671892 20.6078129,19.4796892 19.6625004,17.0125017 C22.7234379,14.2140642 26.7718754,12.4968767 31.2453129,12.4953142 C38.1078129,12.4937517 44.0250004,16.5140642 46.7843754,22.3265642 C47.1546879,23.1062517 48.0859379,23.4390642 48.8656254,23.0687517 C49.6453129,22.7000017 49.9781254,21.7671892 49.6078129,20.9875017 C46.3531254,14.1203142 39.3515629,9.37187669 31.2453129,9.37031419" id="Fill-22"></path>
                <path d="M6.05156291,14.0578142 C10.0984379,7.04843919 17.4640629,3.12656419 25.0343754,3.12500169 C28.7437504,3.12500169 32.4937504,4.06562669 35.9328129,6.05156419 C42.9437504,10.0968767 46.8640629,17.4625017 46.8671879,25.0343767 C46.8656254,28.7437517 45.9250004,32.4937517 43.9406254,35.9328142 C39.8937504,42.9421892 32.5281254,46.8640642 24.9578129,46.8656267 C21.2484379,46.8656267 17.4984379,45.9250017 14.0578129,43.9390642 C7.04843791,39.8937517 3.12656291,32.5281267 3.12500041,24.9562517 C3.12656291,21.2468767 4.06562541,17.4984392 6.05156291,14.0578142 L6.05156291,14.0578142 Z M12.4953129,46.6453142 C16.4203129,48.9125017 20.7203129,49.9921892 24.9578129,49.9906267 C33.5984379,49.9937517 42.0203129,45.5078142 46.6468754,37.4953142 C48.9125004,33.5718767 49.9921879,29.2718767 49.9921879,25.0343767 C49.9937504,16.3921892 45.5078129,7.97187669 37.4953129,3.34531419 C33.5718754,1.07812669 29.2718754,-0.00156080658 25.0343754,1.69342091e-06 C16.3937504,-0.00156080658 7.97187541,4.48281419 3.34531291,12.4953142 C1.07968791,16.4187517 4.08039734e-07,20.7187517 4.08039734e-07,24.9562517 C-0.00156209196,33.5984392 4.48437541,42.0187517 12.4953129,46.6453142 L12.4953129,46.6453142 Z" id="Fill-111"></path>
            </g>
        </g>
    </g>
</svg>